<svg xmlns="http://www.w3.org/2000/svg" width="121.076" height="23.733" viewBox="0 0 121.076 23.733">
  <g id="logo" transform="translate(-256.105 12.734)">
    <g id="Grupo_74" data-name="Grupo 74" transform="translate(256.105 -12.734)">
      <g id="Grupo_17" data-name="Grupo 17" transform="translate(0)">
        <g id="Grupo_15" data-name="Grupo 15" transform="translate(0.041 11.651)">
          <path id="Caminho_28" data-name="Caminho 28" d="M1619.606,399.756c-1.373-.087-2.793-.133-4.239-.133q-1.436,0-2.83.059v2.733h3.448C1618.073,402.415,1619.429,401.328,1619.606,399.756Z" transform="translate(-1603.541 -399.623)" fill="#fff"/>
          <path id="Caminho_29" data-name="Caminho 29" d="M1553.432,401.45a45.9,45.9,0,0,0-6.03.914,11.869,11.869,0,0,0,6.03,9.4Z" transform="translate(-1547.402 -401.198)" fill="#fff"/>
          <path id="Caminho_30" data-name="Caminho 30" d="M1622.6,402.523c-.35,3.333-3.236,5.068-6.715,5.068h-3.352v6.274a11.873,11.873,0,0,0,14.655-10.576A43.119,43.119,0,0,0,1622.6,402.523Z" transform="translate(-1603.541 -402.122)" fill="#fff"/>
        </g>
        <g id="Grupo_16" data-name="Grupo 16">
          <path id="Caminho_31" data-name="Caminho 31" d="M1615.985,375.846h-3.448v2.516q1.394-.057,2.83-.059c1.444,0,2.861.045,4.235.131C1619.409,376.735,1618.038,375.846,1615.985,375.846Z" transform="translate(-1603.5 -367.479)" fill="#fff"/>
          <path id="Caminho_32" data-name="Caminho 32" d="M1558.971,315.266a11.866,11.866,0,0,0-11.866,11.866c0,.037,0,.074,0,.111a47.163,47.163,0,0,1,6.068-.9v-5.407h6.654c3.922,0,6.371,2.205,6.412,5.557a44.469,44.469,0,0,1,4.592.755c0-.037,0-.074,0-.111A11.866,11.866,0,0,0,1558.971,315.266Z" transform="translate(-1547.105 -315.266)" fill="#fff"/>
        </g>
      </g>
      <g id="Grupo_22" data-name="Grupo 22" transform="translate(32.626 3.828)">
        <path id="Caminho_68" data-name="Caminho 68" d="M2053.138,351.37h3.471l-1.082,3.059h-3.471Z" transform="translate(-2010.944 -351.211)" fill="#fff"/>
        <g id="Grupo_21" data-name="Grupo 21" transform="translate(0.053)">
          <g id="Grupo_20" data-name="Grupo 20">
            <path id="Caminho_69" data-name="Caminho 69" d="M1754.76,356.293h6.481c3.785,0,6.073,2.243,6.073,5.484v.045c0,3.671-2.855,5.575-6.413,5.575h-2.651v4.759h-3.49Zm6.254,8a2.456,2.456,0,0,0,2.765-2.4v-.045c0-1.564-1.088-2.4-2.833-2.4h-2.7v4.849Z" transform="translate(-1754.76 -355.455)" fill="#fff"/>
            <path id="Caminho_70" data-name="Caminho 70" d="M1854.844,391.009v-.045c0-2.652,2.016-3.876,4.895-3.876a8.626,8.626,0,0,1,2.968.5v-.2c0-1.428-.884-2.221-2.606-2.221a8.934,8.934,0,0,0-3.354.657l-.861-2.629a10.716,10.716,0,0,1,4.714-.975,5.607,5.607,0,0,1,4.1,1.36,5.3,5.3,0,0,1,1.314,3.875V394.5h-3.331v-1.315a4.669,4.669,0,0,1-3.671,1.541C1856.725,394.725,1854.844,393.41,1854.844,391.009Zm7.909-.793V389.6a5.335,5.335,0,0,0-2.2-.453c-1.473,0-2.379.589-2.379,1.677v.046c0,.929.771,1.473,1.881,1.473C1861.665,392.345,1862.753,391.462,1862.753,390.216Z" transform="translate(-1841.021 -377.797)" fill="#fff"/>
            <path id="Caminho_71" data-name="Caminho 71" d="M1952.956,387.929v-.045a6.236,6.236,0,0,1,6.368-6.322,5.972,5.972,0,0,1,4.85,2.039l-2.108,2.266a3.547,3.547,0,0,0-2.764-1.337,3.1,3.1,0,0,0-2.946,3.309v.045a3.112,3.112,0,0,0,3.082,3.354,3.848,3.848,0,0,0,2.787-1.292l2.017,2.04a6.116,6.116,0,0,1-4.963,2.221A6.2,6.2,0,0,1,1952.956,387.929Z" transform="translate(-1925.583 -377.233)" fill="#fff"/>
            <path id="Caminho_72" data-name="Caminho 72" d="M2052.057,383.2h3.444v12.146h-3.444Z" transform="translate(-2010.997 -378.648)" fill="#fff"/>
            <path id="Caminho_73" data-name="Caminho 73" d="M2095.811,357.724h-1.428v-2.833h1.428v-.77a4.007,4.007,0,0,1,.974-2.946,3.776,3.776,0,0,1,2.787-.952,7.623,7.623,0,0,1,2.447.34v2.855a4.36,4.36,0,0,0-1.563-.295c-.793,0-1.246.408-1.246,1.314v.476H2102v2.81h-2.742v9.2h-3.444Zm8.135-7.342h3.626v3.059h-3.626Zm.091,4.4h3.445v12.146h-3.445Z" transform="translate(-2047.477 -350.223)" fill="#fff"/>
            <path id="Caminho_74" data-name="Caminho 74" d="M2208.412,387.929v-.045a6.236,6.236,0,0,1,6.368-6.322,5.971,5.971,0,0,1,4.849,2.039l-2.108,2.266a3.548,3.548,0,0,0-2.765-1.337,3.1,3.1,0,0,0-2.946,3.309v.045a3.112,3.112,0,0,0,3.082,3.354,3.847,3.847,0,0,0,2.787-1.292l2.017,2.04a6.117,6.117,0,0,1-4.963,2.221A6.2,6.2,0,0,1,2208.412,387.929Z" transform="translate(-2145.758 -377.233)" fill="#fff"/>
            <path id="Caminho_75" data-name="Caminho 75" d="M2299.635,387.929v-.045a6.578,6.578,0,0,1,13.143-.045v.045a6.578,6.578,0,0,1-13.143.045Zm9.744,0v-.045a3.227,3.227,0,0,0-3.2-3.354,3.112,3.112,0,0,0-3.15,3.309v.045a3.227,3.227,0,0,0,3.2,3.354A3.112,3.112,0,0,0,2309.379,387.929Z" transform="translate(-2224.382 -377.233)" fill="#fff"/>
          </g>
        </g>
      </g>
    </g>
  </g>
</svg>
